<mxfile host="app.diagrams.net" modified="2023-08-20T08:33:24.646Z" agent="Mozilla/5.0 (Macintosh; Intel Mac OS X 10_15_7) AppleWebKit/537.36 (KHTML, like Gecko) Chrome/116.0.0.0 Safari/537.36" etag="0Mq43JQo4aqxOkUclm9D" version="21.6.8" type="device">
  <diagram name="Page-1" id="FQexAgDGc7cUgWasVKAZ">
    <mxGraphModel dx="742" dy="492" grid="1" gridSize="10" guides="1" tooltips="1" connect="1" arrows="1" fold="1" page="1" pageScale="1" pageWidth="827" pageHeight="1169" math="0" shadow="0">
      <root>
        <mxCell id="0" />
        <mxCell id="1" parent="0" />
        <mxCell id="b9JFvw6dyV0G_8V0nSb0-7" style="edgeStyle=orthogonalEdgeStyle;rounded=0;orthogonalLoop=1;jettySize=auto;html=1;entryX=0.5;entryY=0;entryDx=0;entryDy=0;" edge="1" parent="1" source="b9JFvw6dyV0G_8V0nSb0-1" target="b9JFvw6dyV0G_8V0nSb0-2">
          <mxGeometry relative="1" as="geometry" />
        </mxCell>
        <mxCell id="b9JFvw6dyV0G_8V0nSb0-1" value="Start" style="ellipse;whiteSpace=wrap;html=1;" vertex="1" parent="1">
          <mxGeometry x="384" y="40" width="60" height="40" as="geometry" />
        </mxCell>
        <mxCell id="b9JFvw6dyV0G_8V0nSb0-8" style="edgeStyle=orthogonalEdgeStyle;rounded=0;orthogonalLoop=1;jettySize=auto;html=1;entryX=0.5;entryY=0;entryDx=0;entryDy=0;" edge="1" parent="1" source="b9JFvw6dyV0G_8V0nSb0-2" target="b9JFvw6dyV0G_8V0nSb0-4">
          <mxGeometry relative="1" as="geometry" />
        </mxCell>
        <mxCell id="b9JFvw6dyV0G_8V0nSb0-2" value="Print&lt;br&gt;Instructions" style="shape=parallelogram;perimeter=parallelogramPerimeter;whiteSpace=wrap;html=1;fixedSize=1;" vertex="1" parent="1">
          <mxGeometry x="354" y="120" width="120" height="60" as="geometry" />
        </mxCell>
        <mxCell id="b9JFvw6dyV0G_8V0nSb0-9" style="edgeStyle=orthogonalEdgeStyle;rounded=0;orthogonalLoop=1;jettySize=auto;html=1;entryX=0.5;entryY=0;entryDx=0;entryDy=0;" edge="1" parent="1" source="b9JFvw6dyV0G_8V0nSb0-4" target="b9JFvw6dyV0G_8V0nSb0-5">
          <mxGeometry relative="1" as="geometry" />
        </mxCell>
        <mxCell id="b9JFvw6dyV0G_8V0nSb0-4" value="Read&lt;br&gt;Characteristics" style="rounded=0;whiteSpace=wrap;html=1;" vertex="1" parent="1">
          <mxGeometry x="354" y="220" width="120" height="60" as="geometry" />
        </mxCell>
        <mxCell id="b9JFvw6dyV0G_8V0nSb0-10" style="edgeStyle=orthogonalEdgeStyle;rounded=0;orthogonalLoop=1;jettySize=auto;html=1;entryX=0.5;entryY=0;entryDx=0;entryDy=0;" edge="1" parent="1" source="b9JFvw6dyV0G_8V0nSb0-5" target="b9JFvw6dyV0G_8V0nSb0-6">
          <mxGeometry relative="1" as="geometry" />
        </mxCell>
        <mxCell id="b9JFvw6dyV0G_8V0nSb0-5" value="Print&lt;br&gt;Characteristics" style="shape=parallelogram;perimeter=parallelogramPerimeter;whiteSpace=wrap;html=1;fixedSize=1;" vertex="1" parent="1">
          <mxGeometry x="354" y="320" width="120" height="60" as="geometry" />
        </mxCell>
        <mxCell id="b9JFvw6dyV0G_8V0nSb0-6" value="Stop" style="ellipse;whiteSpace=wrap;html=1;" vertex="1" parent="1">
          <mxGeometry x="384" y="420" width="60" height="40" as="geometry" />
        </mxCell>
      </root>
    </mxGraphModel>
  </diagram>
</mxfile>
